<svg width="63" height="26" viewBox="0 0 63 26" fill="none" xmlns="http://www.w3.org/2000/svg">
<path d="M8.24121 17.9385C8.02441 18.0967 7.77539 18.1758 7.49414 18.1758C7.21875 18.1758 6.99609 18.1055 6.82617 17.9648C6.66211 17.8184 6.58008 17.6514 6.58008 17.4639C6.58008 17.2764 6.60938 17.1387 6.66797 17.0508C6.83789 17.1504 7.10742 17.2002 7.47656 17.2002C7.62305 17.2002 7.78418 17.127 7.95996 16.9805C8.13574 16.8281 8.27637 16.6201 8.38184 16.3564V12.2344C8.38184 11.959 8.32324 11.7539 8.20605 11.6191C8.03027 11.4082 7.73145 11.2002 7.30957 10.9951C7.7373 10.79 8.00684 10.6201 8.11816 10.4854C8.29395 10.2627 8.38184 10.0137 8.38184 9.73828L8.39062 5.90625C8.25 5.53711 7.93945 5.35254 7.45898 5.35254C7.21289 5.35254 7.03125 5.40234 6.91406 5.50195C6.85547 5.42578 6.82617 5.32617 6.82617 5.20312C6.82617 5.08008 6.85254 4.96875 6.90527 4.86914C6.95801 4.76953 7.03125 4.68164 7.125 4.60547C7.32422 4.45313 7.59082 4.37695 7.9248 4.37695C8.25879 4.37695 8.53418 4.47363 8.75098 4.66699C8.94434 4.47363 9.16992 4.37695 9.42773 4.37695C9.68555 4.37695 9.90527 4.48535 10.0869 4.70215C10.3154 4.48535 10.5176 4.37695 10.6934 4.37695C10.8691 4.37695 11.0039 4.3916 11.0977 4.4209C11.1914 4.4502 11.2852 4.50586 11.3789 4.58789C11.5664 4.73438 11.7627 5.03027 11.9678 5.47559L15.334 12.4629L18.1113 5.61621L18.3574 5.04492C18.5039 4.72266 18.6416 4.53223 18.7705 4.47363C18.8994 4.40918 19.0488 4.37695 19.2188 4.37695C19.3945 4.37695 19.5732 4.44141 19.7549 4.57031C19.9775 4.44141 20.2676 4.37695 20.625 4.37695C20.9883 4.37695 21.3018 4.47363 21.5654 4.66699C21.7998 4.47363 22.043 4.37695 22.2949 4.37695C22.5527 4.37695 22.752 4.39746 22.8926 4.43848C23.0391 4.47949 23.165 4.53516 23.2705 4.60547C23.4932 4.76367 23.6045 4.95996 23.6045 5.19434C23.6045 5.31152 23.5723 5.41406 23.5078 5.50195C23.3789 5.40234 23.2148 5.35254 23.0156 5.35254C22.5703 5.35254 22.2686 5.56055 22.1104 5.97656V9.73828C22.1104 10.0254 22.1719 10.2393 22.2949 10.3799C22.4883 10.6084 22.7842 10.8135 23.1826 10.9951C22.7549 11.2061 22.4824 11.3789 22.3652 11.5137C22.1953 11.7246 22.1104 11.9648 22.1104 12.2344V16.5322C22.3096 16.9775 22.6699 17.2002 23.1914 17.2002C23.3906 17.2002 23.5547 17.1504 23.6836 17.0508C23.748 17.1387 23.7803 17.2412 23.7803 17.3584C23.7803 17.4697 23.7451 17.5752 23.6748 17.6748C23.6104 17.7744 23.5195 17.8594 23.4023 17.9297C23.1328 18.0938 22.8252 18.1758 22.4795 18.1758C22.1338 18.1758 21.8115 18.082 21.5127 17.8945C21.2373 18.082 20.9238 18.1758 20.5723 18.1758C20.1973 18.1758 19.8662 18.082 19.5791 17.8945C19.2803 18.082 19.002 18.1758 18.7441 18.1758C18.4922 18.1758 18.2842 18.1523 18.1201 18.1055C17.9561 18.0645 17.8125 18.0059 17.6895 17.9297C17.4375 17.7773 17.3115 17.5869 17.3115 17.3584C17.3115 17.2412 17.3438 17.1387 17.4082 17.0508C17.5371 17.1504 17.7012 17.2002 17.9004 17.2002C18.4219 17.2002 18.7822 16.9775 18.9814 16.5322V6.92578L15.5537 15.416L15.1758 16.2773C14.9941 16.6875 14.8652 16.9189 14.7891 16.9717C14.7188 17.0244 14.6602 17.0508 14.6133 17.0508C14.4668 17.0508 14.3643 17.0361 14.3057 17.0068L9.6123 7.75195V16.3477C9.72363 16.6172 9.87598 16.8281 10.0693 16.9805C10.2627 17.127 10.4795 17.2002 10.7197 17.2002C10.96 17.2002 11.165 17.1504 11.335 17.0508C11.3994 17.1562 11.4316 17.3027 11.4316 17.4902C11.4316 17.6719 11.3408 17.833 11.1592 17.9736C10.9775 18.1084 10.7432 18.1758 10.4561 18.1758C10.1689 18.1758 9.90527 18.1025 9.66504 17.9561C9.4541 18.1025 9.21094 18.1758 8.93555 18.1758C8.66602 18.1758 8.43457 18.0967 8.24121 17.9385ZM10.8516 7.00488C10.793 7.09277 10.7637 7.21875 10.7637 7.38281C10.7637 7.85742 10.9629 8.4873 11.3613 9.27246L14.5605 15.6621C14.6016 15.6094 14.6221 15.498 14.6221 15.3281C14.6221 14.8184 14.3789 14.0713 13.8926 13.0869L10.8516 7.00488ZM19.8252 15.6709C20.1182 15.5596 20.2793 15.1758 20.3086 14.5195C20.3438 13.8633 20.3613 12.9551 20.3613 11.7949C20.3613 10.6348 20.3584 9.86426 20.3525 9.4834C20.3525 9.09668 20.3496 8.78613 20.3438 8.55176C20.3262 7.86035 20.2588 7.44434 20.1416 7.30371C20.0303 7.15723 19.9248 7.06055 19.8252 7.01367V15.6709ZM9.48926 15.7852C9.48926 15.832 9.49219 15.8672 9.49805 15.8906L9.48926 15.7852ZM8.50488 15.7852C8.49902 15.8086 8.49609 15.8438 8.49609 15.8906L8.50488 15.7852ZM29.4844 17.9033C29.1797 18.085 28.8281 18.1758 28.4297 18.1758C28.0371 18.1758 27.6914 18.082 27.3926 17.8945C27.0938 18.082 26.8154 18.1758 26.5576 18.1758C26.3057 18.1758 26.0977 18.1523 25.9336 18.1055C25.7695 18.0645 25.6289 18.0059 25.5117 17.9297C25.2539 17.7773 25.125 17.5869 25.125 17.3584C25.125 17.2412 25.1572 17.1387 25.2217 17.0508C25.3506 17.1504 25.5146 17.2002 25.7139 17.2002C26.2354 17.2002 26.5957 16.9775 26.7949 16.5322V12.2256C26.7949 11.9619 26.7422 11.7656 26.6367 11.6367C26.4551 11.4199 26.1504 11.2061 25.7227 10.9951C26.1211 10.8135 26.3789 10.6523 26.4961 10.5117C26.6953 10.2832 26.7949 10.0254 26.7949 9.73828V6.0293C26.5957 5.57813 26.2354 5.35254 25.7139 5.35254C25.4736 5.35254 25.2891 5.40234 25.1602 5.50195C25.0957 5.41406 25.0635 5.31445 25.0635 5.20312C25.0635 5.08594 25.0986 4.97754 25.1689 4.87793C25.2451 4.77832 25.3477 4.69336 25.4766 4.62305C25.752 4.45898 26.0654 4.37695 26.417 4.37695C26.7744 4.37695 27.0996 4.47363 27.3926 4.66699C27.6973 4.47363 28.0459 4.37695 28.4385 4.37695C28.8369 4.37695 29.1973 4.49414 29.5195 4.72852C30.1699 4.49414 30.9434 4.37695 31.8398 4.37695C32.4082 4.37695 32.8945 4.43555 33.2988 4.55273L34.0547 4.76367C34.1484 4.78711 34.2393 4.79883 34.3271 4.79883C34.4912 4.79883 34.5732 4.68164 34.5732 4.44727C34.5732 4.38867 34.5527 4.28906 34.5117 4.14844C34.6758 4.11914 34.8838 4.10449 35.1357 4.10449C35.3877 4.10449 35.6016 4.18945 35.7773 4.35938C35.9531 4.52344 36.041 4.76953 36.041 5.09766C36.041 5.41992 35.9766 5.66895 35.8477 5.84473C36.0234 6.11426 36.1113 6.43066 36.1113 6.79395C36.1113 7.15723 35.9941 7.4707 35.7598 7.73438C35.8359 7.92187 35.874 8.1123 35.874 8.30566C35.874 8.49316 35.8477 8.66016 35.7949 8.80664C35.7422 8.95312 35.6748 9.07617 35.5928 9.17578C35.4287 9.375 35.2324 9.47461 35.0039 9.47461C34.7988 9.47461 34.6025 9.4248 34.415 9.3252C34.4912 9.16699 34.5293 8.97949 34.5293 8.7627C34.5293 8.54004 34.5176 8.35547 34.4941 8.20898C34.4766 8.05664 34.4473 7.89844 34.4062 7.73438C34.3242 7.36523 34.1865 7.00195 33.9932 6.64453C33.6064 5.92383 33 5.56348 32.1738 5.56348C31.1484 5.56348 30.4336 5.83008 30.0293 6.36328V10.4238C30.2168 10.5293 30.3896 10.582 30.5479 10.582C30.7061 10.582 30.835 10.5791 30.9346 10.5732C31.0342 10.5674 31.1338 10.5586 31.2334 10.5469C31.4854 10.5176 31.6758 10.4707 31.8047 10.4062C32.0566 10.2891 32.1826 10.0254 32.1826 9.61523C32.1826 9.19922 32.1211 8.88867 31.998 8.68359C32.0918 8.60156 32.2383 8.56055 32.4375 8.56055C32.8301 8.56055 33.1143 8.7627 33.29 9.16699C33.3545 9.31348 33.3867 9.46875 33.3867 9.63281C33.3867 9.79102 33.3516 9.96973 33.2812 10.1689C33.5215 10.4443 33.6416 10.7725 33.6416 11.1533C33.6416 11.5283 33.5215 11.8535 33.2812 12.1289C33.3516 12.3281 33.3867 12.5098 33.3867 12.6738C33.3867 12.832 33.3545 12.9844 33.29 13.1309C33.2256 13.2773 33.1465 13.3945 33.0527 13.4824C32.8711 13.6465 32.666 13.7285 32.4375 13.7285C32.2734 13.7285 32.127 13.6816 31.998 13.5879C32.1211 13.3828 32.1826 13.1426 32.1826 12.8672C32.1826 12.3223 32.0332 11.9854 31.7344 11.8564C31.4824 11.7568 31.1807 11.707 30.8291 11.707C30.4834 11.707 30.2168 11.7598 30.0293 11.8652V16.5059C30.252 16.9688 30.6709 17.2002 31.2861 17.2002C31.4854 17.2002 31.6494 17.1504 31.7783 17.0508C31.8428 17.1387 31.875 17.2412 31.875 17.3584C31.875 17.4697 31.8398 17.5752 31.7695 17.6748C31.7051 17.7744 31.6113 17.8594 31.4883 17.9297C31.2246 18.0938 30.9082 18.1758 30.5391 18.1758C30.1758 18.1758 29.8242 18.085 29.4844 17.9033ZM27.6387 15.6709C27.9316 15.5596 28.0957 15.1758 28.1309 14.5195C28.1602 13.8633 28.1748 12.9551 28.1748 11.7949C28.1748 10.6348 28.1719 9.86426 28.166 9.4834C28.166 9.09668 28.1631 8.78613 28.1572 8.55176C28.1396 7.86035 28.0723 7.44434 27.9551 7.30371C27.8438 7.15723 27.7383 7.06055 27.6387 7.01367C27.6387 9.05273 27.6035 10.2129 27.5332 10.4941C27.4512 10.7285 27.252 10.8955 26.9355 10.9951C27.2871 11.1182 27.4863 11.2676 27.5332 11.4434C27.6035 11.7246 27.6387 12.7529 27.6387 14.5283V15.6709Z" fill="white"/>
<path d="M59.7557 17.141L53.3637 12.2801C54.3961 11.3022 55.0142 10.0605 55.0142 8.70895C55.0142 5.55615 51.653 3 47.5071 3C43.3613 3 40 5.55615 40 8.70895C40 11.8618 43.3613 14.4179 47.5071 14.4179C49.2747 14.4179 50.8994 13.953 52.182 13.1756L58.576 18.0381C58.9017 18.2858 59.4299 18.2858 59.7556 18.0381C60.0814 17.7903 60.0814 17.3887 59.7557 17.141ZM41.6683 8.70895C41.6683 6.25681 44.2827 4.26867 47.5072 4.26867C50.7316 4.26867 53.346 6.25681 53.346 8.70895C53.346 9.93858 52.6885 11.0515 51.6264 11.8556C51.6264 11.8557 51.6263 11.8557 51.6262 11.8558C51.6261 11.8558 51.6261 11.8559 51.626 11.856C50.5701 12.6552 49.1145 13.1493 47.5072 13.1493C44.2827 13.1492 41.6683 11.1611 41.6683 8.70895Z" fill="white"/>
<path d="M0.5 25H63" stroke="white"/>
<path d="M0.5 21H63" stroke="white"/>
</svg>
